# xmcd CD database file
#
# Track frame offsets:
#	150
#	13225
#	23606
#	37126
#	45381
#	56790
#	69184
#	78809
#	90263
#	104630
#	116077
#	127870
#	141313
#	154147
#	165585
#	179349
#	189969
#	203259
#	215804
#	227528
#
# Disc length: 3197 seconds
#
# Revision: 0
# Processed by: cddbd v1.5.2PL0 Copyright (c) Steve Scherf et al.
# Submitted via: CDex 1.70beta2
#
DISCID=030c7b14
DTITLE=CG - Country Gold - D2
DYEAR=1900
DGENRE=Country
TTITLE0=Jambalaya ( On The Bayou) - Hank Williams
TTITLE1=Live Fast, Love Hard, Die Young - Faron Young
TTITLE2=I Forgot More Than You'll Ever Know - The Davis Sisters
TTITLE3=Everywhere - Jim Reeves
TTITLE4=Young Love - Sonny James
TTITLE5=L:ovesick Blues - Hank Williams
TTITLE6=I Don't Believe You Met My Baby - The Louvin Brothers
TTITLE7=Slowly - Webb Pierce
TTITLE8=You've Been A Friend To Me - The Carter Family
TTITLE9=Each Time You Leave - Jim Reeves
TTITLE10=You Win Again - Hank Williams
TTITLE11=If You Got The Money, I've Got The Time - Lefty Frizzell
TTITLE12=Four Walls - Jim Reeves
TTITLE13=Crazy Arms - Ray Price
TTITLE14=Ramblin'Man - Hank Williams
TTITLE15=I'm Ragged But I'm Right - George Jones
TTITLE16=Are You Lonesome Tonight? - The Carter Family
TTITLE17=I Love You Because - Leon Payne
TTITLE18=Dear John - Hank Williams
TTITLE19=Maria Elena - Jim Reeves
EXTD=
EXTT0=
EXTT1=
EXTT2=
EXTT3=
EXTT4=
EXTT5=
EXTT6=
EXTT7=
EXTT8=
EXTT9=
EXTT10=
EXTT11=
EXTT12=
EXTT13=
EXTT14=
EXTT15=
EXTT16=
EXTT17=
EXTT18=
EXTT19=
PLAYORDER=
